<?xml version="1.0" encoding="UTF-8" standalone="no"?>
<svg width="1024" height="1024" viewBox="0 0 1024 1024" xmlns="http://www.w3.org/2000/svg">
    <!-- Background -->
    <defs>
        <linearGradient id="bgGradient" x1="0%" y1="0%" x2="100%" y2="100%">
            <stop offset="0%" style="stop-color:#2B2B49"/>
            <stop offset="100%" style="stop-color:#1E1E33"/>
        </linearGradient>
    </defs>
    
    <!-- Main background -->
    <rect width="1024" height="1024" fill="url(#bgGradient)"/>
    
    <!-- Floppy ears -->
    <path d="M 292 492 C 252 392 292 292 372 252 L 352 532 Z" fill="#DDA000"/>
    <path d="M 732 492 C 772 392 732 292 652 252 L 672 532 Z" fill="#DDA000"/>
    
    <!-- Dog face circle -->
    <circle cx="512" cy="532" r="300" fill="#DDA000"/>
    <circle cx="512" cy="532" r="280" fill="#FFB800"/>
    
    <!-- Chef's hat -->
    <path d="
        M 312 292
        C 312 212 392 152 512 152
        C 632 152 712 212 712 292
        C 712 332 692 372 652 392
        L 672 432
        L 352 432
        L 372 392
        C 332 372 312 332 312 292
        Z" 
        fill="#FFFFFF"/>
    
    <!-- Eyes -->
    <circle cx="412" cy="532" r="70" fill="#2B2B49"/>
    <circle cx="612" cy="532" r="70" fill="#2B2B49"/>
    <circle cx="432" cy="512" r="24" fill="#FFFFFF"/>
    <circle cx="632" cy="512" r="24" fill="#FFFFFF"/>
    
    <!-- Nose -->
    <circle cx="512" cy="592" r="40" fill="#2B2B49"/>
    
    <!-- Happy mouth -->
    <path d="
        M 412 632
        C 472 712 552 712 612 632"
        fill="none"
        stroke="#2B2B49"
        stroke-width="32"
        stroke-linecap="round"/>
        
    <!-- Tongue -->
    <path d="
        M 492 672
        C 512 692 532 692 552 672"
        fill="#E06666"
        stroke="#E06666"
        stroke-width="16"
        stroke-linecap="round"/>
</svg>
